<svg width="44" height="44" viewBox="0 0 44 44" fill="none" xmlns="http://www.w3.org/2000/svg">
<circle cx="22" cy="22" r="22" fill="#4B4B4B"/>
<path fill-rule="evenodd" clip-rule="evenodd" d="M18.365 13.0529C19.3051 13.0096 19.6049 13 21.9996 13C24.3943 13 24.6941 13.0104 25.6334 13.0529C26.5727 13.0954 27.2139 13.2452 27.7749 13.4624C28.3624 13.6844 28.8953 14.0315 29.3361 14.4803C29.7849 14.9203 30.1312 15.4525 30.3524 16.0407C30.5704 16.6017 30.7194 17.2429 30.7627 18.1806C30.806 19.1223 30.8156 19.4221 30.8156 21.816C30.8156 24.2108 30.8052 24.5105 30.7627 25.4506C30.7202 26.3883 30.5704 27.0295 30.3524 27.5905C30.1312 28.1788 29.7844 28.7119 29.3361 29.1525C28.8953 29.6013 28.3624 29.9476 27.7749 30.1688C27.2139 30.3868 26.5727 30.5358 25.635 30.5791C24.6941 30.6224 24.3943 30.632 21.9996 30.632C19.6049 30.632 19.3051 30.6216 18.365 30.5791C17.4273 30.5366 16.7861 30.3868 16.2251 30.1688C15.6368 29.9475 15.1037 29.6007 14.6631 29.1525C14.2146 28.7123 13.8675 28.1795 13.646 27.5913C13.4288 27.0303 13.2798 26.3891 13.2365 25.4514C13.1932 24.5097 13.1836 24.21 13.1836 21.816C13.1836 19.4213 13.194 19.1215 13.2365 18.1822C13.279 17.2429 13.4288 16.6017 13.646 16.0407C13.8678 15.4525 14.2152 14.9197 14.6639 14.4795C15.1039 14.0311 15.6364 13.684 16.2243 13.4624C16.7853 13.2452 17.4265 13.0962 18.3642 13.0529H18.365ZM25.5621 14.6398C24.6324 14.5973 24.3535 14.5885 21.9996 14.5885C19.6457 14.5885 19.3668 14.5973 18.4371 14.6398C17.5772 14.679 17.1107 14.8225 16.7998 14.9435C16.3886 15.1038 16.0945 15.2938 15.7859 15.6023C15.4934 15.8869 15.2683 16.2333 15.1271 16.6162C15.0061 16.9271 14.8626 17.3936 14.8234 18.2535C14.7809 19.1832 14.7721 19.4621 14.7721 21.816C14.7721 24.1699 14.7809 24.4488 14.8234 25.3785C14.8626 26.2384 15.0061 26.7049 15.1271 27.0158C15.2682 27.3981 15.4934 27.7452 15.7859 28.0297C16.0704 28.3222 16.4175 28.5474 16.7998 28.6885C17.1107 28.8095 17.5772 28.953 18.4371 28.9922C19.3668 29.0347 19.6449 29.0435 21.9996 29.0435C24.3543 29.0435 24.6324 29.0347 25.5621 28.9922C26.422 28.953 26.8885 28.8095 27.1994 28.6885C27.6106 28.5282 27.9047 28.3382 28.2133 28.0297C28.5058 27.7452 28.731 27.3981 28.8721 27.0158C28.9931 26.7049 29.1366 26.2384 29.1758 25.3785C29.2183 24.4488 29.2271 24.1699 29.2271 21.816C29.2271 19.4621 29.2183 19.1832 29.1758 18.2535C29.1366 17.3936 28.9931 16.9271 28.8721 16.6162C28.7118 16.205 28.5218 15.9109 28.2133 15.6023C27.9287 15.3099 27.5823 15.0848 27.1994 14.9435C26.8885 14.8225 26.422 14.679 25.5621 14.6398ZM20.8736 24.5337C21.5024 24.7955 22.2027 24.8309 22.8547 24.6337C23.5067 24.4365 24.0701 24.0191 24.4485 23.4528C24.827 22.8864 24.9971 22.2062 24.9298 21.5284C24.8624 20.8505 24.5619 20.2171 24.0794 19.7362C23.7718 19.4289 23.3999 19.1935 22.9905 19.0471C22.581 18.9007 22.1442 18.8469 21.7115 18.8896C21.2787 18.9323 20.8609 19.0704 20.4879 19.2939C20.1149 19.5175 19.7962 19.821 19.5546 20.1825C19.313 20.5441 19.1546 20.9547 19.0907 21.3848C19.0269 21.8149 19.0592 22.2538 19.1853 22.67C19.3115 23.0861 19.5283 23.4691 19.8202 23.7914C20.1121 24.1136 20.4719 24.3672 20.8736 24.5337ZM18.7954 18.6118C19.2162 18.191 19.7157 17.8572 20.2655 17.6295C20.8153 17.4018 21.4045 17.2846 21.9996 17.2846C22.5947 17.2846 23.1839 17.4018 23.7337 17.6295C24.2835 17.8572 24.783 18.191 25.2038 18.6118C25.6246 19.0326 25.9584 19.5321 26.1861 20.0819C26.4138 20.6317 26.531 21.2209 26.531 21.816C26.531 22.4111 26.4138 23.0003 26.1861 23.5501C25.9584 24.0999 25.6246 24.5994 25.2038 25.0202C24.354 25.87 23.2014 26.3475 21.9996 26.3475C20.7978 26.3475 19.6452 25.87 18.7954 25.0202C17.9456 24.1704 17.4682 23.0178 17.4682 21.816C17.4682 20.6142 17.9456 19.4616 18.7954 18.6118ZM27.5361 17.9594C27.6403 17.861 27.7238 17.7428 27.7815 17.6116C27.8393 17.4803 27.8701 17.3389 27.8722 17.1956C27.8743 17.0522 27.8476 16.9099 27.7937 16.7771C27.7398 16.6443 27.6598 16.5236 27.5585 16.4222C27.4571 16.3209 27.3364 16.2409 27.2036 16.187C27.0708 16.1331 26.9285 16.1064 26.7851 16.1085C26.6418 16.1106 26.5004 16.1414 26.3692 16.1992C26.238 16.2569 26.1197 16.3404 26.0213 16.4447C25.83 16.6474 25.7253 16.9168 25.7293 17.1956C25.7334 17.4743 25.8459 17.7405 26.0431 17.9376C26.2402 18.1348 26.5064 18.2473 26.7851 18.2514C27.0639 18.2554 27.3333 18.1507 27.5361 17.9594Z" fill="white"/>
</svg>
