<svg width="44" height="44" viewBox="0 0 44 44" fill="none" xmlns="http://www.w3.org/2000/svg">
<circle cx="22" cy="22" r="22" fill="#4B4B4B"/>
<path d="M17.0812 29.8129H13.3882V17.9202H17.0812V29.8129ZM15.2324 16.298C14.0517 16.298 13.0936 15.3196 13.0936 14.1388C13.0936 13.5716 13.319 13.0276 13.7201 12.6264C14.1212 12.2253 14.6652 12 15.2324 12C15.7997 12 16.3437 12.2253 16.7448 12.6264C17.1459 13.0276 17.3713 13.5716 17.3713 14.1388C17.3713 15.3196 16.4132 16.298 15.2324 16.298ZM30.9027 29.8129H27.218V24.0237C27.218 22.6438 27.19 20.8746 25.298 20.8746C23.378 20.8746 23.0835 22.3734 23.0835 23.9244V29.8129H19.3943V17.9202H22.9359V19.5425H22.9874C23.4804 18.6079 24.6847 17.6219 26.4813 17.6219C30.2188 17.6219 30.9059 20.0832 30.9059 23.28V29.8129H30.9027Z" fill="white"/>
</svg>
