<svg width="45" height="44" viewBox="0 0 45 44" fill="none" xmlns="http://www.w3.org/2000/svg">
<circle cx="22.5" cy="22" r="22" fill="#4B4B4B"/>
<path d="M32.0715 16.0648C31.3675 16.3767 30.6113 16.5875 29.8162 16.6828C30.6365 16.1919 31.2503 15.4193 31.5429 14.5092C30.7722 14.967 29.9286 15.2893 29.049 15.4619C28.4574 14.8303 27.6739 14.4117 26.82 14.271C25.9662 14.1303 25.0898 14.2755 24.3269 14.684C23.564 15.0924 22.9573 15.7413 22.6009 16.5299C22.2446 17.3185 22.1586 18.2027 22.3563 19.0452C20.7946 18.9668 19.2668 18.5609 17.8721 17.8538C16.4774 17.1467 15.247 16.1543 14.2607 14.9409C13.9235 15.5226 13.7295 16.1971 13.7295 16.9155C13.7292 17.5621 13.8884 18.1989 14.1931 18.7693C14.4979 19.3396 14.9387 19.8259 15.4765 20.1851C14.8528 20.1652 14.2429 19.9967 13.6975 19.6935V19.7441C13.6974 20.6511 14.0112 21.5302 14.5855 22.2322C15.1597 22.9342 15.9592 23.4158 16.8482 23.5955C16.2697 23.7521 15.6631 23.7751 15.0743 23.6629C15.3251 24.4433 15.8137 25.1258 16.4717 25.6147C17.1296 26.1036 17.924 26.3745 18.7435 26.3896C17.3523 27.4817 15.634 28.0742 13.8653 28.0716C13.552 28.0717 13.2389 28.0534 12.9277 28.0168C14.7231 29.1712 16.8131 29.7838 18.9476 29.7814C26.1731 29.7814 30.1231 23.797 30.1231 18.6068C30.1231 18.4381 30.1189 18.2678 30.1113 18.0992C30.8796 17.5436 31.5428 16.8555 32.0698 16.0673L32.0715 16.0648Z" fill="white"/>
</svg>
